<?xml version="1.0" encoding="UTF-8" standalone="no"?>
<!-- Generator: Adobe Illustrator 15.1.0, SVG Export Plug-In . SVG Version: 6.00 Build 0)  -->

<svg
   xmlns:ns="http://ns.adobe.com/SaveForWeb/1.0/"
   xmlns:dc="http://purl.org/dc/elements/1.1/"
   xmlns:cc="http://creativecommons.org/ns#"
   xmlns:rdf="http://www.w3.org/1999/02/22-rdf-syntax-ns#"
   xmlns:svg="http://www.w3.org/2000/svg"
   xmlns="http://www.w3.org/2000/svg"
   xmlns:sodipodi="http://sodipodi.sourceforge.net/DTD/sodipodi-0.dtd"
   xmlns:inkscape="http://www.inkscape.org/namespaces/inkscape"
   version="1.1"
   id="svg2"
   x="0px"
   y="0px"
   width="537.59198"
   height="169.896"
   viewBox="0 0 537.59198 169.89599"
   enable-background="new 0 0 595.276 841.89"
   xml:space="preserve"
   inkscape:version="0.48.2 r9819"
   sodipodi:docname="Perkins-Logo.svg"><defs
   id="defs29" /><sodipodi:namedview
   pagecolor="#ffffff"
   bordercolor="#666666"
   borderopacity="1"
   objecttolerance="10"
   gridtolerance="10"
   guidetolerance="10"
   inkscape:pageopacity="0"
   inkscape:pageshadow="2"
   inkscape:window-width="640"
   inkscape:window-height="480"
   id="namedview27"
   showgrid="false"
   fit-margin-top="0"
   fit-margin-left="0"
   fit-margin-right="0"
   fit-margin-bottom="0"
   inkscape:zoom="0.28032165"
   inkscape:cx="260.433"
   inkscape:cy="-52.448998"
   inkscape:window-x="0"
   inkscape:window-y="22"
   inkscape:window-maximized="0"
   inkscape:current-layer="svg2" />
<metadata
   id="metadata3">
	<ns:sfw>
		<ns:slices />
		<ns:sliceSourceBounds
   height="169.896"
   width="537.592"
   y="473.394"
   x="37.205"
   bottomLeftOrigin="true" />
	</ns:sfw>
<rdf:RDF><cc:Work
     rdf:about=""><dc:format>image/svg+xml</dc:format><dc:type
       rdf:resource="http://purl.org/dc/dcmitype/StillImage" /><dc:title></dc:title></cc:Work></rdf:RDF></metadata>
<g
   id="g5"
   transform="translate(-37.205002,-198.60001)">
	<path
   d="m 158.362,288.958 c 3.512,3.69 5.262,8.025 5.262,12.998 0,5.321 -1.845,9.811 -5.536,13.506 -3.693,3.698 -8.197,5.541 -13.51,5.541 -5.054,0 -9.376,-1.728 -12.959,-5.184 l -6.99,6.951 -6.988,-7.029 c -3.72,3.502 -8.118,5.262 -13.199,5.262 -5.292,0 -9.771,-1.843 -13.452,-5.541 -3.676,-3.695 -5.514,-8.185 -5.514,-13.506 0,-4.946 1.726,-9.278 5.184,-12.998 -0.972,-0.999 -3.248,-3.285 -6.836,-6.875 l 6.91,-6.915 c -3.456,-3.661 -5.182,-7.941 -5.182,-12.837 0,-5.315 1.821,-9.819 5.456,-13.51 3.642,-3.688 8.121,-5.539 13.435,-5.539 5.13,0 9.528,1.77 13.199,5.304 1.041,-0.996 3.373,-3.302 6.988,-6.914 1.544,1.466 3.848,3.744 6.909,6.836 3.72,-3.48 8.062,-5.226 13.041,-5.226 5.313,0 9.807,1.841 13.471,5.52 3.661,3.676 5.495,8.189 5.495,13.529 0,4.868 -1.691,9.149 -5.062,12.837 l 6.797,6.836 -6.919,6.954 z m -53.921,-38.333 c -3.272,0 -6.058,1.155 -8.344,3.456 -2.291,2.305 -3.439,5.093 -3.439,8.367 0,3.011 1.011,5.576 3.025,7.695 l 16.846,-16.337 c -2.302,-2.12 -5,-3.181 -8.088,-3.181 m -8.603,43.438 c -1.934,2.144 -2.903,4.726 -2.903,7.734 0,3.196 1.126,5.988 3.377,8.36 2.247,2.386 4.959,3.583 8.128,3.583 3.145,0 5.756,-1.087 7.856,-3.258 L 95.838,294.063 z m 57.183,-15.009 c -2.433,1.393 -5.25,2.088 -8.444,2.088 -5.238,0 -9.695,-1.828 -13.371,-5.478 -3.681,-3.649 -5.52,-8.101 -5.52,-13.334 0,-2.854 0.654,-5.563 1.963,-8.131 l -3.022,-3.336 c -0.367,0.392 -1.402,1.464 -3.104,3.217 1.258,2.569 1.887,5.315 1.887,8.25 0,5.265 -1.841,9.714 -5.517,13.352 -3.681,3.642 -8.162,5.46 -13.454,5.46 -2.695,0 -5.407,-0.602 -8.128,-1.806 l -2.673,2.667 2.714,2.749 c 2.878,-1.229 5.571,-1.843 8.087,-1.843 5.318,0 9.822,1.848 13.51,5.536 3.688,3.695 5.536,8.204 5.536,13.51 0,2.876 -0.59,5.588 -1.765,8.134 l 2.942,3.096 2.83,-2.939 c -1.231,-2.702 -1.846,-5.453 -1.846,-8.29 0,-5.267 1.836,-9.75 5.519,-13.466 3.676,-3.723 8.148,-5.58 13.41,-5.58 2.908,0 5.708,0.683 8.405,2.043 l 2.986,-2.949 -2.945,-2.95 z M 115.907,259.7 c -2.694,2.748 -7.381,7.436 -14.056,14.059 0.966,0.156 1.828,0.232 2.589,0.232 3.299,0 6.109,-1.099 8.424,-3.297 2.318,-2.195 3.478,-4.946 3.478,-8.246 0.001,-0.864 -0.143,-1.781 -0.435,-2.748 m -11.466,30.589 c -0.81,0 -1.588,0.039 -2.32,0.122 l 13.669,13.743 c 0.184,-0.811 0.279,-1.601 0.279,-2.356 0,-3.271 -1.124,-6.004 -3.363,-8.209 -2.239,-2.194 -4.993,-3.3 -8.265,-3.3 m 28.827,-30.79 c -0.264,0.867 -0.392,1.849 -0.392,2.949 0,3.246 1.141,5.984 3.434,8.207 2.291,2.228 5.049,3.336 8.268,3.336 1.15,0 2.132,-0.076 2.947,-0.232 l -14.257,-14.26 z m 11.31,30.79 c -3.219,0 -5.95,1.116 -8.187,3.341 -2.239,2.223 -3.36,4.946 -3.36,8.168 0,1.05 0.09,1.973 0.276,2.792 l 13.98,-14.104 c -0.918,-0.131 -1.816,-0.197 -2.709,-0.197 m 8.6,3.854 c -3.064,3.224 -8.498,8.748 -16.3,16.57 2.176,2.012 4.741,3.027 7.7,3.027 3.248,0 5.994,-1.182 8.246,-3.531 2.257,-2.357 3.38,-5.167 3.38,-8.412 -0.001,-2.9 -1.009,-5.456 -3.026,-7.654 m -8.6,-43.518 c -3.013,0 -5.563,1.035 -7.656,3.104 l 16.416,16.337 c 2.014,-2.145 3.025,-4.685 3.025,-7.617 0,-3.299 -1.143,-6.094 -3.417,-8.387 -2.279,-2.29 -5.069,-3.437 -8.368,-3.437"
   id="path7"
   inkscape:connector-curvature="0"
   style="fill:#004a93" />
	<path
   d="m 183.233,245.82 h 31.85 c 8.062,0 14.218,2.396 18.457,7.19 3.661,4.139 5.497,9.475 5.497,15.995 0,6.576 -1.831,11.934 -5.487,16.08 -4.237,4.787 -10.385,7.19 -18.438,7.19 h -16.638 v 26.003 H 183.233 V 245.82 z m 15.241,34.092 h 11.621 c 4.291,0 7.482,-0.71 9.575,-2.125 2.538,-1.711 3.808,-4.626 3.808,-8.745 0,-4.256 -1.336,-7.208 -4.004,-8.862 -2.042,-1.285 -5.169,-1.929 -9.379,-1.929 h -11.621 v 21.661 z"
   id="path9"
   inkscape:connector-curvature="0"
   style="fill:#004a93" />
	<path
   d="m 253.744,295.546 c 0,8.742 4.244,13.111 12.722,13.111 2.279,0 4.506,-0.59 6.679,-1.753 2.413,-1.3 3.911,-2.937 4.521,-4.935 h 12.955 c -3.978,11.67 -12.201,17.508 -24.662,17.508 -8.167,0 -14.7,-2.514 -19.578,-7.568 -4.888,-5.052 -7.328,-11.657 -7.328,-19.824 0,-8.084 2.347,-14.705 7.032,-19.859 5.049,-5.573 11.68,-8.36 19.874,-8.36 8.322,0 14.788,3.145 19.399,9.433 4.112,5.587 6.168,13.001 6.168,22.248 h -37.782 z m 23.056,-9.088 c -1.363,-7.399 -5.108,-11.095 -11.234,-11.095 -3.928,0 -7.017,1.358 -9.271,4.077 -1.704,2.066 -2.55,4.406 -2.55,7.018 H 276.8 z"
   id="path11"
   inkscape:connector-curvature="0"
   style="fill:#004a93" />
	<path
   d="m 298.232,265.018 h 13.271 v 8.914 h 0.157 c 2.359,-3.992 4.74,-6.641 7.151,-7.939 2.311,-1.254 5.83,-1.922 10.568,-1.998 0.939,0 1.921,0.172 2.941,0.507 v 13.278 c -1.255,-0.313 -2.881,-0.473 -4.868,-0.473 -10.157,0 -15.248,5.815 -15.248,17.441 v 23.522 h -13.973 v -53.252 z"
   id="path13"
   inkscape:connector-curvature="0"
   style="fill:#004a93" />
	<path
   d="m 389.383,318.308 c -0.681,-0.081 -2.436,-0.115 -5.247,-0.115 -2.817,0 -6.714,0.026 -11.668,0.081 L 356.207,294 l -4.55,4.511 v 19.764 h -13.636 v -72.462 h 13.636 v 37.738 l 17.965,-18.768 h 16.897 l -19.837,19.874 22.701,33.651 z"
   id="path15"
   inkscape:connector-curvature="0"
   style="fill:#004a93" />
	<path
   d="m 392.665,252.313 c 0,-2.225 0.771,-4.106 2.312,-5.653 1.545,-1.547 3.422,-2.318 5.642,-2.318 2.221,0 4.104,0.771 5.637,2.318 1.545,1.547 2.311,3.429 2.311,5.653 0,2.229 -0.766,4.109 -2.311,5.642 -1.532,1.532 -3.416,2.296 -5.637,2.296 -2.22,0 -4.097,-0.764 -5.642,-2.296 -1.541,-1.533 -2.312,-3.413 -2.312,-5.642 m 0.595,65.961 h 14.447 V 264.8 H 393.26 v 53.474 z"
   id="path17"
   inkscape:connector-curvature="0"
   style="fill:#004a93" />
	<path
   d="m 415.025,264.82 h 13.547 v 8.677 h 0.355 c 2.062,-3.439 4.293,-5.82 6.674,-7.135 2.859,-1.576 5.695,-2.364 8.529,-2.364 7.583,0 12.864,1.978 15.86,5.933 2.536,3.329 3.809,8.765 3.809,16.312 v 32.031 H 449.518 V 288.93 c 0,-3.818 -0.497,-6.698 -1.495,-8.637 -1.42,-2.801 -4.228,-4.203 -8.435,-4.203 -3.987,0 -6.836,1.569 -8.547,4.712 -1.226,2.202 -1.843,5.603 -1.843,10.216 v 27.256 H 415.024 V 264.82 z"
   id="path19"
   inkscape:connector-curvature="0"
   style="fill:#004a93" />
	<path
   d="m 482.969,301.148 c 0,2.514 1.285,4.731 3.848,6.641 1.908,1.435 4.428,2.151 7.54,2.151 6.631,0 9.935,-2.218 9.935,-6.667 0,-2.353 -2.672,-4.325 -8.008,-5.921 -1.758,-0.523 -4.594,-1.229 -8.525,-2.117 -4.163,-0.942 -6.994,-1.74 -8.478,-2.396 -5.554,-2.455 -8.331,-6.29 -8.331,-11.499 0,-11.121 7.58,-16.677 22.739,-16.677 15.422,0 23.129,5.499 23.129,16.493 h -13.229 c 0,-4.657 -3.422,-6.992 -10.255,-6.992 -5.13,0 -7.695,1.613 -7.695,4.824 0,2.8 2.715,4.819 8.126,6.043 4.056,0.861 6.838,1.437 8.326,1.728 2.908,0.629 5.497,1.454 7.778,2.477 5.473,2.507 8.207,6.519 8.207,12.042 0,6.511 -2.46,11.311 -7.38,14.396 -4.036,2.538 -9.494,3.801 -16.376,3.801 -6.995,0 -12.598,-1.282 -16.812,-3.84 -5.13,-3.128 -7.694,-7.959 -7.694,-14.487 h 13.155 z"
   id="path21"
   inkscape:connector-curvature="0"
   style="fill:#004a93" />
	<path
   d="m 530.949,264.8 c 1.361,0 2.702,0.354 4.017,1.058 1.305,0.702 2.328,1.708 3.062,3.024 0.728,1.314 1.09,2.681 1.09,4.103 0,1.412 -0.355,2.766 -1.08,4.065 -0.719,1.302 -1.72,2.308 -3.027,3.03 -1.292,0.719 -2.652,1.079 -4.061,1.079 -1.424,0 -2.777,-0.36 -4.074,-1.079 -1.298,-0.723 -2.309,-1.729 -3.028,-3.03 -0.727,-1.3 -1.084,-2.653 -1.084,-4.065 0,-1.422 0.362,-2.788 1.099,-4.103 0.734,-1.316 1.753,-2.322 3.067,-3.024 1.3,-0.703 2.644,-1.058 4.019,-1.058 m 0,1.341 c -1.16,0 -2.278,0.297 -3.362,0.887 -1.097,0.592 -1.941,1.432 -2.565,2.528 -0.614,1.096 -0.915,2.241 -0.915,3.429 0,1.182 0.296,2.311 0.903,3.393 0.604,1.081 1.449,1.926 2.54,2.53 1.077,0.607 2.208,0.91 3.399,0.91 1.178,0 2.311,-0.303 3.396,-0.91 1.086,-0.604 1.926,-1.449 2.533,-2.53 0.604,-1.082 0.897,-2.211 0.897,-3.393 0,-1.188 -0.298,-2.333 -0.92,-3.429 -0.607,-1.097 -1.461,-1.937 -2.553,-2.528 -1.093,-0.59 -2.207,-0.887 -3.353,-0.887 m -3.585,11.376 v -8.818 h 3.022 c 1.03,0 1.774,0.084 2.234,0.248 0.46,0.158 0.83,0.442 1.104,0.852 0.272,0.406 0.409,0.837 0.409,1.297 0,0.642 -0.228,1.212 -0.688,1.684 -0.46,0.482 -1.069,0.749 -1.828,0.806 0.308,0.127 0.565,0.289 0.751,0.468 0.348,0.345 0.786,0.925 1.297,1.74 l 1.077,1.725 h -1.728 l -0.783,-1.388 c -0.614,-1.091 -1.111,-1.774 -1.481,-2.048 -0.264,-0.201 -0.653,-0.304 -1.147,-0.304 h -0.835 v 3.739 h -1.404 z m 1.405,-4.953 h 1.738 c 0.832,0 1.402,-0.122 1.706,-0.37 0.301,-0.252 0.455,-0.582 0.455,-0.988 0,-0.265 -0.073,-0.499 -0.218,-0.707 -0.152,-0.211 -0.351,-0.362 -0.609,-0.466 -0.263,-0.098 -0.737,-0.154 -1.439,-0.154 h -1.633 v 2.685 z"
   id="path23"
   inkscape:connector-curvature="0"
   style="fill:#004a93" />
</g>
<rect
   x="0"
   y="-6.6336497e-06"
   width="537.59198"
   height="169.896"
   id="rect25"
   style="fill:none" />
</svg>